HIERARCHY
ROOT root
{
	OFFSET	0	13.1	24.9
	CHANNELS 6  Xposition Yposition Zposition Xrotation Yrotation Zrotation
	JOINT spine_1
	{
		OFFSET	0	9.99999	0
		CHANNELS 3  Xrotation Yrotation Zrotation
		JOINT spine_2
		{
			OFFSET	0	112	-10
			CHANNELS 3  Xrotation Yrotation Zrotation
			JOINT spine_3
			{
				OFFSET	0	206.5	19.3
				CHANNELS 3  Xrotation Yrotation Zrotation
				JOINT spine_4
				{
					OFFSET	0	110.4	14.6
					CHANNELS 3  Xrotation Yrotation Zrotation
					JOINT neck_1
					{
						OFFSET	0	71.8	-50.3
						CHANNELS 3  Xrotation Yrotation Zrotation
						JOINT neck_2
						{
							OFFSET	0	86.2	-25.8
							CHANNELS 3  Xrotation Yrotation Zrotation
							JOINT head_ee
							{
								OFFSET	0	179.8	-8.7
								CHANNELS 3  Xrotation Yrotation Zrotation
								End Site
								{
									OFFSET	1	0	0
								}
							}
						}
					}
					JOINT left_clavicle
					{
						OFFSET	-43.2	22.4	-70.8
						CHANNELS 3  Xrotation Yrotation Zrotation
						JOINT left_shoulder
						{
							OFFSET	-93.9	-5.79999	48.7
							CHANNELS 3  Xrotation Yrotation Zrotation
							JOINT left_elbow
							{
								OFFSET	-291.4	-30.8	15.2
								CHANNELS 3  Xrotation Yrotation Zrotation
								JOINT left_lowarm_twist
								{
									OFFSET	-110.7	-3.89999	13.6
									CHANNELS 3  Xrotation Yrotation Zrotation
									JOINT left_hand
									{
										OFFSET	-110.7	-3.89999	13.6
										CHANNELS 3  Xrotation Yrotation Zrotation
										JOINT left_ee
										{
											OFFSET	-80.8	-5.10001	12.1
											CHANNELS 3  Xrotation Yrotation Zrotation
											End Site
											{
												OFFSET	1	0	0
											}
										}
									}
								}
							}
						}
					}
					JOINT right_clavicle
					{
						OFFSET	43.2	22.4	-70.8
						CHANNELS 3  Xrotation Yrotation Zrotation
						JOINT right_shoulder
						{
							OFFSET	93.9	-5.79999	48.7
							CHANNELS 3  Xrotation Yrotation Zrotation
							JOINT right_elbow
							{
								OFFSET	291.4	-30.8	15.2
								CHANNELS 3  Xrotation Yrotation Zrotation
								JOINT right_lowarm_twist
								{
									OFFSET	110.7	-3.89999	13.6
									CHANNELS 3  Xrotation Yrotation Zrotation
									JOINT right_hand
									{
										OFFSET	110.7	-3.89999	13.6
										CHANNELS 3  Xrotation Yrotation Zrotation
										JOINT right_ee
										{
											OFFSET	80.8	-5.10001	12.1
											CHANNELS 3  Xrotation Yrotation Zrotation
											End Site
											{
												OFFSET	1	0	0
											}
										}
									}
								}
							}
						}
					}
				}
			}
		}
	}
	JOINT left_hip
	{
		OFFSET	-82.8	-127.5	0.300001
		CHANNELS 3  Xrotation Yrotation Zrotation
		JOINT left_knee
		{
			OFFSET	-28.2	-396.7	2.2
			CHANNELS 3  Xrotation Yrotation Zrotation
			JOINT left_ankle
			{
				OFFSET	-11.7	-411.3	35.4
				CHANNELS 3  Xrotation Yrotation Zrotation
				JOINT left_toes
				{
					OFFSET	0	-60	-88.6
					CHANNELS 3  Xrotation Yrotation Zrotation
					JOINT left_foot_ee
					{
						OFFSET	-22.5	-16.5	-42.2
						CHANNELS 3  Xrotation Yrotation Zrotation
						End Site
						{
							OFFSET	1	0	0
						}
					}
				}
			}
		}
	}
	JOINT right_hip
	{
		OFFSET	82.8	-127.5	0.300001
		CHANNELS 3  Xrotation Yrotation Zrotation
		JOINT right_knee
		{
			OFFSET	28.2	-396.7	2.2
			CHANNELS 3  Xrotation Yrotation Zrotation
			JOINT right_ankle
			{
				OFFSET	11.7	-411.3	35.4
				CHANNELS 3  Xrotation Yrotation Zrotation
				JOINT right_toes
				{
					OFFSET	0	-60	-88.6
					CHANNELS 3  Xrotation Yrotation Zrotation
					JOINT right_foot_ee
					{
						OFFSET	22.5	-16.5	-42.2
						CHANNELS 3  Xrotation Yrotation Zrotation
						End Site
						{
							OFFSET	1	0	0
						}
					}
				}
			}
		}
	}
}
MOTION
Frames: 16
Frame Time: 0.02
2344.76 734.336 -1479.13 4.537 62.2901 -11.4428 1.47127 0.402992 3.57367 1.47835 0.174923 3.59204 1.49003 -0.491995 3.56253 1.47233 0.0764368 3.59548 -11.2469 16.521 -0.80273 -11.7695 31.7951 3.92484 -0.0 0.0 -0.0 -4.09733 21.3364 -3.39977 -21.1018 -18.4316 69.3368 0.559063 -15.4799 0.0759859 -31.7308 -2.11769 3.40576 0.239258 18.0371 8.78526 -0.0 0.0 -0.0 13.1496 22.3795 -26.4016 0.394698 25.8358 -69.0839 1.4982 36.579 -0.495202 18.7622 -0.275205 2.37021 2.61543 11.0796 -13.0381 0.0 0.0 0.0 4.55262 34.8223 -5.18204 -22.645 0.254853 3.44314 39.0953 -7.46286 -4.89444 -39.8478 0.0 0.0 -0.0 0.0 -0.0 1.75149 20.4741 -0.453763 -2.53622 -0.0960859 -0.377335 20.9629 -2.41551 2.8586 -6.916 0.0 0.0 0.0 0.0 0.0 
2339.66 736.954 -1476.82 4.25976 62.7992 -11.1694 1.58333 0.391339 3.6721 1.59082 0.157043 3.68953 1.60143 -0.520544 3.65605 1.58278 0.062985 3.69233 -11.097 16.0453 -0.454479 -11.5613 30.6545 4.05954 -0.0 0.0 -0.0 -4.51145 21.2909 -4.01132 -21.4774 -17.6269 70.3359 0.538398 -14.9337 0.0705651 -30.8077 -2.03075 3.32541 0.26978 18.9831 9.32321 -0.0 0.0 -0.0 13.0282 21.5468 -26.1912 1.1196 26.1977 -68.9456 1.62196 38.7779 -0.570863 17.996 -0.279263 2.27243 2.99487 12.3225 -15.0998 0.0 0.0 0.0 4.82929 34.4081 -4.85797 -19.7294 0.29876 2.99796 38.643 -6.25861 -4.83283 -39.8136 0.0 0.0 -0.0 0.0 -0.0 1.85832 21.4171 -0.305836 -2.39907 -0.0913183 -0.356826 20.4555 -4.8812 2.78905 -7.14874 0.0 0.0 0.0 0.0 0.0 
2334.49 737.637 -1473.36 3.19883 63.1309 -9.81877 1.6263 0.330507 3.58468 1.63345 0.101886 3.59842 1.64018 -0.555763 3.55676 1.62253 0.0125569 3.59984 -12.0143 15.4998 -1.02224 -12.5565 30.0615 3.61979 -0.0 0.0 -0.0 -4.9857 20.596 -4.87993 -20.6378 -17.7328 72.5786 0.548473 -15.2004 0.0731844 -29.7628 -1.93393 3.23279 0.470627 19.7309 10.8164 -0.0 0.0 -0.0 12.895 20.4929 -25.965 1.31444 25.9552 -69.0545 1.77132 41.2619 -0.666932 17.4269 -0.281429 2.19978 3.19736 13.5983 -15.9088 0.0 0.0 0.0 5.21264 34.241 -4.69354 -16.6486 0.320485 2.52582 34.0925 -6.08387 -4.40124 -40.2969 0.0 0.0 -0.0 0.0 -0.0 2.3552 22.1125 -0.466054 -1.74566 -0.0679309 -0.259275 22.7495 -6.39035 3.06576 -7.39391 0.0 0.0 0.0 0.0 0.0 
2330.51 739.253 -1471.6 1.64748 63.3917 -8.02265 1.78226 0.321462 3.49749 1.78906 0.098396 3.51084 1.79513 -0.533803 3.47146 1.77832 0.0207978 3.51215 -12.0778 14.9776 -1.50307 -12.5943 29.3784 3.00954 -0.0 0.0 -0.0 -5.08316 20.0141 -5.17445 -20.5721 -17.5708 73.4671 0.501503 -13.9517 0.0613629 -29.0177 -1.86593 3.16568 0.564556 20.2888 11.5842 -0.0 0.0 -0.0 12.8498 19.7727 -25.912 2.37708 25.887 -69.0395 1.86509 42.7309 -0.729678 17.1728 -0.282164 2.16734 3.38436 15.1759 -16.4483 0.0 0.0 0.0 5.36772 34.041 -4.51888 -14.4666 0.320504 2.19106 33.7549 -6.73393 -4.37822 -40.3256 0.0 0.0 -0.0 0.0 -0.0 2.76447 22.5904 -0.66017 -1.32646 -0.0523402 -0.19683 23.5193 -7.5276 3.15752 -7.67838 0.0 0.0 0.0 0.0 0.0 
2326.2 741.336 -1469.76 0.780687 63.4284 -6.89173 1.6771 0.337104 3.46204 1.68376 0.116259 3.47645 1.69106 -0.516266 3.43991 1.67455 0.0331417 3.47824 -11.2709 15.2313 -1.52635 -11.7165 29.8189 2.83377 -0.0 0.0 -0.0 -5.52208 19.9506 -5.8508 -20.0562 -17.567 74.5733 0.482608 -13.4455 0.0568881 -27.5767 -1.73694 3.03344 0.853554 20.2067 13.3171 -0.0 0.0 -0.0 12.0813 19.1892 -24.1758 2.40398 25.829 -69.6012 2.07176 45.7378 -0.873897 17.1774 -0.282152 2.16792 3.62392 16.5713 -17.4219 0.0 0.0 0.0 5.09063 34.8929 -4.12748 -12.9284 0.312857 1.95518 31.4304 -6.49803 -4.13614 -40.0473 0.0 0.0 -0.0 0.0 -0.0 2.93456 22.6738 -0.716242 -1.23575 -0.0489061 -0.183333 24.8811 -10.0107 3.32256 -7.95071 0.0 0.0 0.0 0.0 0.0 
2320.48 740.58 -1466.23 -0.306318 63.7657 -5.62598 1.69721 0.332366 3.42135 1.70371 0.114114 3.43554 1.71076 -0.509773 3.39947 1.69464 0.0331784 3.43728 -12.0386 15.2828 -1.11301 -12.5681 29.7086 3.46906 -0.0 0.0 -0.0 -5.79068 19.9264 -6.26282 -19.5138 -17.5691 75.2293 0.478856 -13.3448 0.0560189 -26.8346 -1.67182 2.96408 1.02518 20.5218 14.4741 -0.0 0.0 -0.0 11.8698 18.5397 -23.7314 2.69219 25.6993 -69.927 2.08908 45.9761 -0.886326 17.2411 -0.281981 2.17605 3.8047 17.8503 -18.0254 0.0 0.0 0.0 4.77497 34.5439 -3.70082 -12.0964 0.306082 1.8277 30.1121 -7.42842 -4.01107 -39.7312 0.0 0.0 -0.0 0.0 -0.0 3.07633 22.8574 -0.730925 -1.02215 -0.0407363 -0.15157 25.4362 -11.5783 3.39378 -7.91684 0.0 0.0 0.0 0.0 0.0 
2308.97 737.412 -1460.95 0.57738 63.3811 -6.26381 1.55035 0.313838 3.32988 1.55652 0.101434 3.34308 1.56285 -0.514035 3.30493 1.54761 0.0140645 3.34459 -10.5272 15.351 -2.56309 -10.9001 30.6687 1.65246 -0.0 0.0 -0.0 -5.91604 20.1058 -6.40168 -19.7976 -18.131 75.6512 0.532024 -14.7647 0.0689317 -25.8772 -1.58916 2.87339 1.15361 20.3883 15.2216 -0.0 0.0 -0.0 11.2435 18.1064 -22.3296 2.40072 25.5043 -70.2989 2.19166 47.3463 -0.960939 16.9111 -0.28277 2.13391 3.74704 18.8277 -17.1166 0.0 0.0 0.0 3.56359 35.1702 -3.05522 -11.3386 0.298302 1.7117 27.0921 -7.5434 -3.67786 -39.8557 0.0 0.0 -0.0 0.0 -0.0 3.00587 23.2869 -0.474366 -3.4348 -0.126104 -0.511972 30.5013 -11.9191 3.96183 -8.01219 0.0 0.0 0.0 0.0 0.0 
2301.3 735.659 -1457.36 0.648761 62.7772 -5.82779 1.44666 0.295355 3.24461 1.45252 0.0884051 3.25681 1.45809 -0.516883 3.21679 1.44365 -0.0026444 3.25801 -8.79453 15.2404 -3.95514 -8.93784 31.2855 -0.269918 -0.0 0.0 -0.0 -5.98756 19.8991 -6.56847 -19.3118 -18.697 75.8997 0.548586 -15.2033 0.0732139 -24.665 -1.4867 2.75661 1.39236 20.1698 16.6344 -0.0 0.0 -0.0 11.0791 17.7092 -21.98 2.16995 25.3052 -70.5016 2.21789 47.6857 -0.980288 15.927 -0.283682 2.00822 3.74725 18.833 -17.1153 0.0 0.0 0.0 2.41471 35.5788 -2.90815 -9.15982 0.267392 1.37882 24.7307 -7.47119 -3.40223 -39.3262 0.0 0.0 -0.0 0.0 -0.0 4.03302 23.0422 -0.994614 -5.00961 -0.173602 -0.748982 34.0069 -12.4743 4.33113 -8.35619 0.0 0.0 0.0 0.0 0.0 
2294.88 735.119 -1455.41 0.196125 62.8867 -4.89938 1.3625 0.308861 3.21749 1.36825 0.103607 3.2306 1.37477 -0.501702 3.19313 1.36055 0.00861549 3.23225 -7.93926 15.1247 -4.24784 -7.96695 31.2188 -0.85435 -0.0 0.0 -0.0 -5.47758 19.5935 -5.87985 -17.8238 -19.3443 75.1445 0.415347 -11.6266 0.042287 -23.2474 -1.37006 2.61737 1.59848 20.1519 17.9208 -0.0 0.0 -0.0 10.8941 17.4248 -21.5775 2.1879 25.4731 -70.6751 2.09507 46.058 -0.890636 15.6438 -0.283545 1.97205 3.62489 18.8308 -16.273 0.0 0.0 0.0 1.18748 36.06 -2.45207 -5.31978 0.182187 0.79581 21.5461 -8.88016 -3.03567 -39.1472 0.0 0.0 -0.0 0.0 -0.0 4.07064 23.5022 -1.31226 -5.10162 -0.176175 -0.762869 35.1135 -12.5144 4.44189 -9.50995 0.0 0.0 0.0 0.0 0.0 
2288.44 737.231 -1457.83 -0.754602 62.0946 -3.72328 1.30498 0.445216 3.19875 1.31064 0.240877 3.22057 1.32508 -0.367545 3.20859 1.31075 0.143532 3.22636 -8.36011 15.3541 -5.06603 -8.42153 32.2362 -1.48238 -0.0 0.0 -0.0 -5.53847 19.2655 -6.06093 -15.8097 -19.1886 74.5593 0.47889 -13.3457 0.0560267 -22.6924 -1.32535 2.56208 1.61193 21.3879 18.375 -0.0 0.0 -0.0 10.9966 17.5261 -21.8036 1.10985 24.9019 -70.7729 2.03327 45.201 -0.846465 14.5716 -0.281404 1.83513 3.4739 18.1083 -15.6043 0.0 0.0 0.0 -0.2341 36.5887 -1.87297 -2.6619 0.100411 0.396138 20.4035 -8.16555 -2.88171 -39.5223 0.0 0.0 -0.0 0.0 -0.0 4.30222 24.0516 -1.84837 -5.08768 -0.175787 -0.760765 34.836 -13.3448 4.42261 -10.011 0.0 0.0 0.0 0.0 0.0 
2281.62 739.117 -1454.85 -0.35189 61.6325 -3.88097 1.16394 0.458612 3.15368 1.16944 0.257109 3.17644 1.18481 -0.35105 3.16744 1.17084 0.153332 3.18313 -7.12148 15.4089 -4.81918 -7.02808 32.0976 -1.62135 -0.0 0.0 -0.0 -5.82347 19.2453 -6.5025 -13.5388 -19.2751 75.1622 0.462446 -12.903 0.0522928 -22.2729 -1.2919 2.52 1.72978 21.1253 19.0364 -0.0 0.0 -0.0 10.9572 17.6704 -21.7064 0.634401 24.6164 -70.8443 1.82666 42.137 -0.703746 14.4125 -0.280869 1.81481 3.61858 20.3787 -15.4245 0.0 0.0 0.0 -1.82182 37.9346 -0.932311 0.0105763 -0.000435503 -0.0015646 16.2757 -7.70042 -2.3397 -40.1975 0.0 0.0 -0.0 0.0 -0.0 4.3937 23.7181 -1.90637 -6.4789 -0.212024 -0.971187 36.8199 -13.7476 4.62083 -10.7455 0.0 0.0 0.0 0.0 0.0 
2276.83 737.786 -1454.66 0.0770987 61.8007 -4.26278 1.10395 0.39304 3.1479 1.10945 0.192037 3.16651 1.12119 -0.416641 3.14487 1.1074 0.0850025 3.17118 -7.55624 15.3795 -4.95174 -7.51492 32.1623 -1.62201 -0.0 0.0 -0.0 -6.00681 19.0605 -6.83621 -11.9624 -19.5005 74.825 0.463374 -12.928 0.0525003 -21.4818 -1.22968 2.44 1.86508 21.6004 20.0249 -0.0 0.0 -0.0 10.8244 16.8436 -21.4512 0.33423 24.451 -70.97 1.66937 39.5861 -0.600819 13.7694 -0.278128 1.73271 3.62727 19.6535 -15.8626 0.0 0.0 0.0 -2.89832 38.653 -0.493989 0.517253 -0.0216449 -0.0764245 18.4634 -8.71009 -2.63992 -39.7976 0.0 0.0 -0.0 0.0 -0.0 4.41692 23.961 -1.93769 -7.81367 -0.241976 -1.17382 35.3004 -14.3812 4.48039 -12.4348 0.0 0.0 0.0 0.0 0.0 
2275.66 739.552 -1453.78 -0.776931 61.5617 -3.10161 1.00649 0.503533 3.09999 1.01178 0.305351 3.12571 1.02981 -0.302432 3.126 1.01623 0.194806 3.13454 -7.44644 16.6815 -4.15281 -7.42857 34.0238 -0.557301 -0.0 0.0 -0.0 -6.17337 19.6273 -6.92918 -9.60408 -20.5385 74.1423 0.556857 -15.4217 0.0753981 -21.5006 -1.23115 2.44191 1.70907 24.3462 19.8142 -0.0 0.0 -0.0 10.9815 17.8853 -21.7492 -0.603429 24.1826 -71.2287 1.46942 36.0489 -0.478159 14.1079 -0.279685 1.77592 3.07881 18.7863 -12.5667 0.0 0.0 0.0 -4.45991 38.5197 0.211465 2.71 -0.121047 -0.398175 19.3534 -9.32036 -2.76361 -40.0036 0.0 0.0 -0.0 0.0 -0.0 5.42916 23.8908 -2.41259 -8.14723 -0.248722 -1.22457 36.4036 -14.2665 4.58703 -13.2279 0.0 0.0 0.0 0.0 0.0 
2272.87 736.832 -1453.1 -0.769946 61.6002 -3.00902 0.950674 0.434934 2.9868 0.955603 0.244083 3.00839 0.969713 -0.34316 2.99871 0.957191 0.134515 3.01527 -7.12829 17.0911 -3.44716 -7.0876 34.2643 0.135322 -0.0 0.0 -0.0 -6.56008 19.3007 -7.61925 -7.89605 -21.2763 73.3674 0.616294 -16.9772 0.0919814 -21.2263 -1.20983 2.41399 1.80315 25.3079 20.6446 -0.0 0.0 -0.0 11.5514 17.9007 -23.0417 -1.60066 23.5578 -69.9906 1.2058 30.8494 -0.332704 14.4219 -0.280902 1.81601 2.73314 17.409 -10.895 0.0 0.0 0.0 -5.28156 38.7741 0.709648 3.17561 -0.143738 -0.466002 20.6412 -8.19674 -2.91218 -39.8446 0.0 0.0 -0.0 0.0 -0.0 5.85365 23.4103 -2.53878 -9.79841 -0.277763 -1.47626 33.7705 -15.2679 4.33724 -15.1622 0.0 0.0 0.0 0.0 0.0 
2271.14 738.607 -1453.05 -0.870422 62.5684 -2.72279 0.875218 0.31574 2.9171 0.879943 0.129559 2.93126 0.887781 -0.444856 2.90023 0.876044 0.0185589 2.93406 -8.9834 17.7993 -2.14318 -9.26587 34.8759 2.25127 -0.0 0.0 -0.0 -6.73918 18.9777 -7.99482 -5.34293 -21.7547 72.7439 0.700226 -19.1302 0.117997 -21.0508 -1.19626 2.39607 1.75055 26.6432 20.6684 -0.0 0.0 -0.0 11.88 17.7909 -23.7981 -3.13384 22.9762 -68.879 1.03996 27.2553 -0.252131 14.8428 -0.282188 1.86976 2.44924 16.347 -9.4754 0.0 0.0 0.0 -5.44031 39.1199 0.752301 3.64923 -0.167385 -0.534809 21.9836 -9.18468 -3.09485 -39.3115 0.0 0.0 -0.0 0.0 -0.0 6.095 24.7768 -2.86953 -11.8573 -0.303794 -1.7911 31.1884 -12.2317 4.03743 -17.6919 0.0 0.0 0.0 0.0 0.0 
2265.06 738.472 -1450.99 -0.270077 62.0456 -3.48974 0.804643 0.470252 2.86914 0.809177 0.286806 2.89322 0.825095 -0.28617 2.89328 0.813456 0.174162 2.90217 -8.33105 17.8386 -3.48389 -8.49224 35.7998 0.706223 -0.0 0.0 -0.0 -6.58167 18.9093 -7.77043 -3.7484 -22.806 72.0995 0.82584 -22.2492 0.162394 -20.8139 -1.17802 2.37181 1.32307 27.6871 18.4121 -0.0 0.0 -0.0 12.0617 17.7868 -24.2149 -3.40429 22.6594 -68.1806 0.835138 22.4749 -0.165932 15.0182 -0.282607 1.89215 2.16653 16.1165 -7.67242 0.0 0.0 0.0 -6.44566 38.5635 1.18577 2.84054 -0.127353 -0.41721 23.0933 -11.6397 -3.2748 -38.8954 0.0 0.0 -0.0 0.0 -0.0 5.92803 26.6748 -2.67367 -13.4959 -0.316415 -2.04219 31.5837 -9.36907 4.06213 -19.5023 0.0 0.0 0.0 0.0 0.0 
